<?xml version="1.0" encoding="UTF-8"?>
<svg xmlns="http://www.w3.org/2000/svg" xmlns:xlink="http://www.w3.org/1999/xlink" width="30pt" height="30pt" viewBox="0 0 30 30" version="1.1">
<g id="surface1">
<path style=" stroke:none;fill-rule:nonzero;fill:rgb(0%,0%,0%);fill-opacity:1;" d="M 24 23.5 C 24.277344 23.5 24.5 23.277344 24.5 23 L 24.5 16.5 C 24.5 16.222656 24.277344 16 24 16 C 23.722656 16 23.5 16.222656 23.5 16.5 L 23.5 23 C 23.5 23.277344 23.722656 23.5 24 23.5 Z M 24 23.5 "/>
<path style=" stroke:none;fill-rule:nonzero;fill:rgb(0%,0%,0%);fill-opacity:1;" d="M 24 26.5 C 24.277344 26.5 24.5 26.277344 24.5 26 L 24.5 25 C 24.5 24.722656 24.277344 24.5 24 24.5 C 23.722656 24.5 23.5 24.722656 23.5 25 L 23.5 26 C 23.5 26.277344 23.722656 26.5 24 26.5 Z M 24 26.5 "/>
<path style=" stroke:none;fill-rule:nonzero;fill:rgb(0%,0%,0%);fill-opacity:1;" d="M 22.5 10.5 C 22.5 10.777344 22.722656 11 23 11 L 27 11 C 27.277344 11 27.5 10.777344 27.5 10.5 L 27.5 7 C 27.5 6.722656 27.277344 6.5 27 6.5 C 26.722656 6.5 26.5 6.722656 26.5 7 L 26.5 10 L 23 10 C 22.722656 10 22.5 10.222656 22.5 10.5 Z M 22.5 10.5 "/>
<path style=" stroke:none;fill-rule:nonzero;fill:rgb(0%,0%,0%);fill-opacity:1;" d="M 21 10 L 20 10 C 19.722656 10 19.5 10.222656 19.5 10.5 C 19.5 10.777344 19.722656 11 20 11 L 21 11 C 21.277344 11 21.5 10.777344 21.5 10.5 C 21.5 10.222656 21.277344 10 21 10 Z M 21 10 "/>
<path style=" stroke:none;fill-rule:nonzero;fill:rgb(0%,0%,0%);fill-opacity:1;" d="M 4 30 L 12 30 C 13.933594 29.996094 15.496094 28.433594 15.5 26.5 L 15.5 3.5 C 15.5 2.933594 15.363281 2.378906 15.101562 1.875 C 20.316406 0.6875 22.101562 1.425781 22.664062 2.28125 C 22.707031 2.351562 22.742188 2.421875 22.773438 2.5 L 18 2.5 C 17.171875 2.5 16.5 3.171875 16.5 4 L 16.5 11.5 C 16.5 12.328125 17.171875 13 18 13 L 18 14.5 C 18 14.777344 18.222656 15 18.5 15 L 19.5 15 L 19.5 16.75 C 19.5 16.941406 19.605469 17.113281 19.777344 17.199219 L 20.382812 17.5 L 19.777344 17.800781 C 19.605469 17.886719 19.5 18.058594 19.5 18.25 L 19.5 19.25 C 19.5 19.441406 19.605469 19.613281 19.777344 19.699219 L 20.382812 20 L 19.777344 20.300781 C 19.605469 20.386719 19.5 20.558594 19.5 20.75 L 19.5 21.75 C 19.5 21.941406 19.605469 22.113281 19.777344 22.199219 L 20.382812 22.5 L 19.777344 22.800781 C 19.605469 22.886719 19.5 23.058594 19.5 23.25 L 19.5 26.5 C 19.5 26.632812 19.554688 26.757812 19.648438 26.851562 L 22.648438 29.851562 C 22.84375 30.046875 23.15625 30.046875 23.351562 29.851562 L 26.351562 26.851562 C 26.445312 26.757812 26.5 26.632812 26.5 26.5 L 26.5 15 L 27.5 15 C 27.777344 15 28 14.777344 28 14.5 L 28 13 C 28.828125 13 29.5 12.328125 29.5 11.5 L 29.5 4 C 29.5 3.171875 28.828125 2.5 28 2.5 L 23.824219 2.5 C 23.757812 2.226562 23.648438 1.96875 23.496094 1.730469 C 22.386719 0.0429688 19.421875 -0.195312 14.445312 1 C 13.792969 0.359375 12.914062 0 12 0 L 4 0 C 2.066406 0.00390625 0.503906 1.566406 0.5 3.5 L 0.5 26.5 C 0.503906 28.433594 2.066406 29.996094 4 30 Z M 25.5 26.292969 L 23 28.792969 L 20.5 26.292969 L 20.5 23.558594 L 21.722656 22.949219 C 21.894531 22.867188 22 22.691406 22 22.503906 C 22 22.3125 21.894531 22.140625 21.722656 22.054688 L 20.5 21.441406 L 20.5 21.058594 L 21.722656 20.449219 C 21.894531 20.367188 22 20.191406 22 20.003906 C 22 19.8125 21.894531 19.640625 21.722656 19.554688 L 20.5 18.941406 L 20.5 18.558594 L 21.722656 17.949219 C 21.894531 17.867188 22 17.691406 22 17.503906 C 22 17.3125 21.894531 17.140625 21.722656 17.054688 L 20.5 16.441406 L 20.5 15 L 25.5 15 Z M 27 14 L 19 14 L 19 13 L 27 13 Z M 28.5 4 L 28.5 11.5 C 28.5 11.777344 28.277344 12 28 12 L 18 12 C 17.722656 12 17.5 11.777344 17.5 11.5 L 17.5 4 C 17.5 3.722656 17.722656 3.5 18 3.5 L 22.929688 3.5 C 22.90625 3.839844 22.847656 4.175781 22.746094 4.5 L 20 4.5 C 19.171875 4.5 18.5 5.171875 18.5 6 L 18.5 7 C 18.5 7.828125 19.171875 8.5 20 8.5 L 24 8.5 C 24.828125 8.5 25.5 7.828125 25.5 7 L 25.5 6 C 25.5 5.171875 24.828125 4.5 24 4.5 L 23.773438 4.5 C 23.855469 4.171875 23.90625 3.835938 23.921875 3.5 L 28 3.5 C 28.277344 3.5 28.5 3.722656 28.5 4 Z M 21.246094 7.5 L 20 7.5 C 19.722656 7.5 19.5 7.277344 19.5 7 L 19.5 6 C 19.5 5.722656 19.722656 5.5 20 5.5 L 22.378906 5.5 C 22.0625 6.199219 21.683594 6.871094 21.246094 7.5 Z M 23.453125 5.5 L 24 5.5 C 24.277344 5.5 24.5 5.722656 24.5 6 L 24.5 7 C 24.5 7.277344 24.277344 7.5 24 7.5 L 22.4375 7.5 C 22.835938 6.863281 23.175781 6.195312 23.453125 5.5 Z M 1.5 3.5 C 1.5 2.121094 2.621094 1 4 1 L 12 1 C 13.378906 1 14.5 2.121094 14.5 3.5 L 14.5 26.5 C 14.5 27.878906 13.378906 29 12 29 L 4 29 C 2.621094 29 1.5 27.878906 1.5 26.5 Z M 1.5 3.5 "/>
<path style=" stroke:none;fill-rule:nonzero;fill:rgb(0%,0%,0%);fill-opacity:1;" d="M 12.5 27 L 11.5 27 C 11.222656 27 11 27.222656 11 27.5 C 11 27.777344 11.222656 28 11.5 28 L 12.5 28 C 12.777344 28 13 27.777344 13 27.5 C 13 27.222656 12.777344 27 12.5 27 Z M 12.5 27 "/>
<path style=" stroke:none;fill-rule:nonzero;fill:rgb(0%,0%,0%);fill-opacity:1;" d="M 9.5 27 L 9 27 C 8.722656 27 8.5 27.222656 8.5 27.5 C 8.5 27.777344 8.722656 28 9 28 L 9.5 28 C 9.777344 28 10 27.777344 10 27.5 C 10 27.222656 9.777344 27 9.5 27 Z M 9.5 27 "/>
<path style=" stroke:none;fill-rule:nonzero;fill:rgb(0%,0%,0%);fill-opacity:1;" d="M 6.5 26 L 9.5 26 C 11.707031 25.996094 13.496094 24.207031 13.5 22 L 13.5 8.042969 C 13.496094 5.832031 11.707031 4.042969 9.5 4.042969 L 6.5 4.042969 C 4.292969 4.042969 2.503906 5.832031 2.5 8.042969 L 2.5 22 C 2.503906 24.207031 4.292969 25.996094 6.5 26 Z M 3.5 8.042969 C 3.5 6.386719 4.84375 5.042969 6.5 5.042969 L 9.5 5.042969 C 11.15625 5.042969 12.5 6.386719 12.5 8.042969 L 12.5 14.5 L 3.5 14.5 Z M 3.5 15.542969 L 12.5 15.542969 L 12.5 22 C 12.5 23.65625 11.15625 25 9.5 25 L 6.5 25 C 4.84375 25 3.5 23.65625 3.5 22 Z M 3.5 15.542969 "/>
<path style=" stroke:none;fill-rule:nonzero;fill:rgb(0%,0%,0%);fill-opacity:1;" d="M 5.5 23.5 L 10.5 23.5 C 10.777344 23.5 11 23.277344 11 23 L 11 19 C 11 17.621094 9.878906 16.5 8.5 16.5 L 7.5 16.5 C 6.121094 16.5 5 17.621094 5 19 L 5 23 C 5 23.277344 5.222656 23.5 5.5 23.5 Z M 10 22.5 L 6 22.5 L 6 20.5 L 10 20.5 Z M 6 19 C 6 18.171875 6.671875 17.5 7.5 17.5 L 8.5 17.5 C 9.328125 17.5 10 18.171875 10 19 L 10 19.5 L 6 19.5 Z M 6 19 "/>
<path style=" stroke:none;fill-rule:nonzero;fill:rgb(0%,0%,0%);fill-opacity:1;" d="M 10.449219 6.277344 C 10.363281 6.105469 10.191406 6 10 6 L 6.5 6 C 6.367188 6 6.242188 6.050781 6.148438 6.144531 L 5.148438 7.144531 C 4.957031 7.34375 4.960938 7.65625 5.152344 7.847656 C 5.34375 8.039062 5.65625 8.042969 5.851562 7.851562 L 6.707031 7 L 9.691406 7 L 10 7.617188 L 10 9.5 L 5.5 9.5 C 5.222656 9.5 5 9.722656 5 10 L 5 13 C 5 13.277344 5.222656 13.5 5.5 13.5 L 10.5 13.5 C 10.777344 13.5 11 13.277344 11 13 L 11 7.5 C 11 7.421875 10.980469 7.347656 10.949219 7.277344 Z M 10 12.5 L 6 12.5 L 6 10.5 L 10 10.5 Z M 10 12.5 "/>
</g>
</svg>
